<svg id="visual" viewBox="0 0 900 600" width="900" height="600" xmlns="http://www.w3.org/2000/svg" xmlns:xlink="http://www.w3.org/1999/xlink" version="1.1"><rect x="0" y="0" width="900" height="600" fill="#0F172A"></rect><path d="M0 297L37.5 315.5C75 334 150 371 225 376.2C300 381.3 375 354.7 450 322C525 289.3 600 250.7 675 261.2C750 271.7 825 331.3 862.5 361.2L900 391L900 0L862.5 0C825 0 750 0 675 0C600 0 525 0 450 0C375 0 300 0 225 0C150 0 75 0 37.5 0L0 0Z" fill="#4688FA" stroke-linecap="round" stroke-linejoin="miter"></path></svg>